<svg version="1.0" xmlns="http://www.w3.org/2000/svg" viewBox="0 0 256 256"><path d="M111.5 39.5c-2.7.8-5.3 1.4-5.6 1.5-2.1.1-22.3 14.7-26.5 19.1C73 66.9 66.9 77 66.3 81.9l-.5 3.8-9.4.6c-10.8.7-29 4.2-31.9 6.2-6.4 4.2-14.5 14.1-17.9 21.6-4.2 9.6-5.3 23.4-3.2 42.3.5 4.6 7.2 18.9 11 23.3 3.5 4.1 13 9.3 17.2 9.3 1.8 0 4.5.5 6.1 1.1 1.8.7 15.7 1.2 38.3 1.4 61 .6 114.1.6 115 0 .4-.3 5-.7 10.2-.9 8.9-.5 9.7-.7 18.5-5.4 5-2.7 11.5-7 14.4-9.5 3-2.6 5.8-4.7 6.2-4.7 2.9 0 9.7-12.5 12.9-23.7 1.9-6.3 2.3-10.2 2.3-20.9 0-12.6-.1-13.2-2.8-17.2-1.5-2.3-3.5-6.2-4.5-8.5-1.2-3.1-4.8-7.3-12.2-14.3-8.3-8-12.1-10.8-18.4-13.8-10.4-4.9-17.6-6.7-25.9-6.5l-6.7.2-3.8-5.4C174.1 50.7 161.4 43.2 146 40c-11.2-2.3-27.1-2.5-34.5-.5zM146 57.2c1.9.9 6.2 2.6 9.4 3.9 5.9 2.3 6.6 2.9 22.8 20.1 3.3 3.5 4.1 3.9 6.5 3.2 3-1 13.7-.9 18.9.1 4.1.7 17.6 10.5 24.2 17.5 2.8 3 5.2 5.9 5.2 6.3 0 .5.9 2.2 2.1 3.8 1.1 1.6 1.8 3.3 1.4 3.8-.3.5-.1 1.2.5 1.6 1.6 1 1.2 19.5-.5 22.5-.8 1.4-1.4 3.3-1.5 4.3 0 2.6-6.5 13-10.3 16.5-1.8 1.6-4.9 4.8-7 7-6.8 7.6-8.1 7.9-34.9 8.5-13.1.2-23.8.3-23.8 0 0-.2 1.4-3 3-6.2 3.5-6.7 3.8-7.6 5.3-18.7 2-14.9-3.3-28.4-13.1-33.3-9.6-4.8-12.6-5.2-28.2-3.7-8 .8-15.8 1.9-17.3 2.5-4.1 1.6-16.3.7-22.1-1.6-4-1.6-5.1-2.6-6.3-5.9-1.6-4.2-2.3-12.3-1.2-13 .4-.2 1.5-2.8 2.3-5.7 1.8-6.1 7.3-15.1 13.8-22.2 5.3-5.9 14.9-11 22.8-12.4 8.1-1.4 23.8-.8 28 1.1zm-78.4 44.9c.6.5 1.4 4.2 1.8 8.2.8 7.9 4 15.8 8 19.6 1.4 1.3 5.8 3.4 9.8 4.7 8.6 2.8 17.5 3.1 30.2.9 4.7-.8 11.8-1.8 15.8-2.1 4-.3 8.1-1 9.1-1.5 2.1-1.2 7 .9 11.5 5.1 2.5 2.2 3.2 3.7 3.2 6.5 0 1.9.5 4.3 1.1 5.4.7 1.1.9 3.3.5 5.7-.6 3.1-2.2 5.3-8.4 11.3-13.5 13-8.6 11.9-53.7 11.6-46.5-.3-58.2-1-61-3.5-1.1-1-2.9-2-4-2.4-2.3-.7-7.5-5.2-7.5-6.6 0-.4-1.1-2.1-2.4-3.7-2.1-2.4-2.5-4.4-3.4-15.8-.6-7.2-.7-15-.3-17.5.9-5.5 6.1-15.7 9.9-19.2 3.2-3.1 13-6.8 18.7-6.9 2.2-.1 5.4-.5 7-.9 3.5-.9 12.5-.2 14.1 1.1z" fill="#7F1900" stroke="#7F1900" stroke-width="1.7"/><path d="M47.5 102.5c-3.8.6-9.2 2-12 2.9-5 1.8-11.9 7.2-10.9 8.7.2.4-.2 1.1-.9 1.6-2 1.2-5 8.2-4.4 10.4.3 1 .1 2.2-.4 2.5-.8.5-.6 14 .4 24.6.6 5.9 7.1 14.5 14.2 18.6 7.1 4.2 3.7 3.9 59.1 4.8 41.4.6 42.1.6 45.5-1.5 7-4.2 15-11.6 18-16.6 1.9-3.1 2.6-10 1.1-10.9-.5-.3-.7-1.9-.4-3.6.5-3.6-1.3-6-7.2-9.7-2.6-1.7-4.6-2.3-6.3-1.8-1.4.3-5.3.8-8.6 1-3.4.2-10.2 1.1-15.1 2-13.7 2.3-26.1 2-34.3-1-10.2-3.7-14.1-9.4-16.3-24.2-1-6.9-1.5-8.2-3.4-8.7-3.2-.9-10.3-.5-18.1.9z" fill="#994C19" stroke="#994C19" stroke-width="1.7"/><path d="M115.5 57.3c-1.6.5-5.8 2.3-9.3 4-9.4 4.7-20.3 18-23.8 28.8-.9 3-2.1 5.8-2.5 6.3-1.4 1.6-1 6.4.8 11.7 1.5 4.2 2.3 5 6.3 6.6 5.3 2.1 18.2 2.4 27.3.6 7.3-1.5 20.1-2.8 25.1-2.5 7.1.3 15.7 4.2 20.7 9.3 4 4.1 5 6 6.9 13 1.7 6.6 2.1 9.6 1.5 14.8-.7 7.3-3.2 15.5-6.4 21.8l-2.1 4.1 21.8-.4c11.9-.3 23.2-.7 25-1 5.9-.9 27.2-24.3 27.2-30 0-1 .7-3.2 1.5-4.8.8-1.5 1.7-4.8 1.9-7.2.6-5.9-1.1-17.1-2.9-19.7-.8-1.2-1.5-2.7-1.5-3.3 0-2.5-17.7-18.1-26-23-3.7-2.1-18-3-21.2-1.3-2.7 1.4-6.9-.4-9.7-4.1-1.1-1.6-2.1-3.1-2.1-3.4 0-.2-2.8-3.2-6.1-6.6-6.8-6.8-10.3-8.8-21.4-12.5-6.4-2.2-9.1-2.5-17.8-2.4-5.6.1-11.5.6-13.2 1.2z" fill="#CC7F19" stroke="#CC7F19" stroke-width="1.7"/></svg>